<svg width="28" height="31" viewBox="0 0 28 31" fill="none" xmlns="http://www.w3.org/2000/svg">
<path fill-rule="evenodd" clip-rule="evenodd" d="M13.1405 0.294907C13.646 -0.0983023 14.354 -0.0983023 14.8595 0.294907L27.4595 10.0949C27.8005 10.3601 28 10.768 28 11.2V26.6C28 27.7139 27.5575 28.7822 26.7698 29.5698C25.9822 30.3575 24.9139 30.8 23.8 30.8H4.2C3.08609 30.8 2.0178 30.3575 1.23015 29.5698C0.442499 28.7822 0 27.7139 0 26.6V11.2C0 10.768 0.199462 10.3601 0.540483 10.0949L13.1405 0.294907ZM2.8 11.8847V26.6C2.8 26.9713 2.9475 27.3274 3.21005 27.5899C3.4726 27.8525 3.8287 28 4.2 28H23.8C24.1713 28 24.5274 27.8525 24.7899 27.5899C25.0525 27.3274 25.2 26.9713 25.2 26.6V11.8847L14 3.17361L2.8 11.8847Z" fill="#C8EAD1"/>
<path fill-rule="evenodd" clip-rule="evenodd" d="M8.39999 15.4C8.39999 14.6268 9.0268 14 9.79999 14H18.2C18.9732 14 19.6 14.6268 19.6 15.4V29.4C19.6 30.1732 18.9732 30.8 18.2 30.8C17.4268 30.8 16.8 30.1732 16.8 29.4V16.8H11.2V29.4C11.2 30.1732 10.5732 30.8 9.79999 30.8C9.0268 30.8 8.39999 30.1732 8.39999 29.4V15.4Z" fill="#C8EAD1"/>
</svg>
