<svg width="31" height="31" viewBox="0 0 31 31" fill="none" xmlns="http://www.w3.org/2000/svg">
<path fill-rule="evenodd" clip-rule="evenodd" d="M15.5 0C14.8203 0 14.1612 0.224093 13.6217 0.635143L1.23859 10.0699C0.851729 10.3647 0.539592 10.7454 0.325299 11.1808C0.111044 11.6161 0 12.095 0 12.5797V27.8551C0 28.6824 0.323308 29.48 0.905429 30.0713C1.48826 30.6634 2.2833 31 3.11685 31H10.1929C11.0265 31 11.8215 30.6634 12.4044 30.0713C12.9865 29.48 13.3098 28.6824 13.3098 27.8551V22.4638C13.3098 22.3378 13.3592 22.2212 13.4406 22.1386C13.5213 22.0566 13.6262 22.0145 13.731 22.0145H17.269C17.3738 22.0145 17.4787 22.0566 17.5594 22.1386C17.6408 22.2212 17.6902 22.3378 17.6902 22.4638V27.8551C17.6902 28.6824 18.0135 29.48 18.5956 30.0713C19.1785 30.6634 19.9735 31 20.8071 31H27.8832C28.7167 31 29.5117 30.6634 30.0946 30.0713C30.6767 29.48 31 28.6824 31 27.8551V12.5797C31 12.095 30.889 11.6161 30.6747 11.1808C30.4604 10.7454 30.1483 10.3647 29.7614 10.0699L17.3783 0.635143C16.8388 0.224093 16.1797 0 15.5 0Z" fill="#C8EAD1"/>
</svg>
