<svg width="30" height="28" viewBox="0 0 30 28" fill="none" xmlns="http://www.w3.org/2000/svg">
<path fill-rule="evenodd" clip-rule="evenodd" d="M16.2228 0.742461C15.993 0.287822 15.519 0 15 0C14.481 0 14.007 0.287822 13.7772 0.742461L9.88056 8.4539L1.16645 9.69811C0.652963 9.77143 0.226582 10.1231 0.0665222 10.6053C-0.0935379 11.0875 0.0404702 11.6167 0.412221 11.9704L6.71658 17.9687L5.22874 26.4428C5.14099 26.9425 5.35133 27.4476 5.7713 27.7456C6.19126 28.0437 6.74802 28.0829 7.20745 27.8469L15 23.8438L22.7925 27.8469C23.252 28.0829 23.8087 28.0437 24.2287 27.7456C24.6487 27.4476 24.859 26.9425 24.7713 26.4428L23.2834 17.9687L29.5878 11.9704C29.9595 11.6167 30.0935 11.0875 29.9335 10.6053C29.7734 10.1231 29.347 9.77143 28.8335 9.69811L20.1194 8.4539L16.2228 0.742461Z" fill="#C8EAD1"/>
</svg>
