<svg width="30" height="28" viewBox="0 0 30 28" fill="none" xmlns="http://www.w3.org/2000/svg">
<path fill-rule="evenodd" clip-rule="evenodd" d="M15 0C15.519 0 15.993 0.287822 16.2228 0.742461L20.1194 8.4539L28.8335 9.69811C29.347 9.77143 29.7734 10.1231 29.9335 10.6053C30.0935 11.0875 29.9595 11.6167 29.5878 11.9704L23.2834 17.9687L24.7713 26.4428C24.859 26.9425 24.6487 27.4476 24.2287 27.7456C23.8087 28.0437 23.252 28.0829 22.7925 27.8469L15 23.8438L7.20745 27.8469C6.74802 28.0829 6.19127 28.0437 5.7713 27.7456C5.35133 27.4476 5.14099 26.9425 5.22874 26.4428L6.71658 17.9687L0.412221 11.9704C0.0404702 11.6167 -0.0935379 11.0875 0.0665222 10.6053C0.226582 10.1231 0.652963 9.77143 1.16645 9.69811L9.88056 8.4539L13.7772 0.742461C14.007 0.287822 14.481 0 15 0ZM15 4.34154L12.0092 10.2604C11.8107 10.6531 11.4273 10.9255 10.9836 10.9888L4.29332 11.9441L9.13329 16.5491C9.45493 16.8551 9.60174 17.2962 9.52584 17.7285L8.3839 24.2325L14.3653 21.1597C14.7626 20.9556 15.2374 20.9556 15.6347 21.1597L21.6161 24.2325L20.4742 17.7285C20.3983 17.2962 20.5451 16.8551 20.8667 16.5491L25.7067 11.9441L19.0164 10.9888C18.5727 10.9255 18.1893 10.6531 17.9908 10.2604L15 4.34154Z" fill="#C8EAD1"/>
</svg>
